<svg viewBox="0 0 24 24" xmlns="http://www.w3.org/2000/svg" shape-rendering="crispEdges">
  <!-- Steam -->
  <path d="M9 2h2v3H9V2zm4 1h2v3h-2V3z" fill="#000"/>
  <!-- Mug Body -->
  <path d="M5 8h12v12h-2v2H7v-2H5V8z" fill="#000"/>
  <path d="M7 10h8v10H7V10z" fill="#fff"/>
  <!-- Handle -->
  <path d="M17 10h4v6h-4v-6zm2 2v2h2v-2h-2z" fill="#000"/>
  <!-- Heart (Bold) -->
  <path d="M9 13h2v2H9v-2zm2 0h2v2h-2v-2zm-1 2h2v2h-2v-2z" fill="#000"/>
  <!-- Bottom line -->
  <path d="M5 21h14v2H5v-2z" fill="#000"/>
</svg>
